<?xml version="1.0" encoding="utf-8"?>
<svg id="Ebene_1" data-name="Ebene 1" xmlns="http://www.w3.org/2000/svg" viewBox="0 0 328.42 118.5"><defs><style>.cls-1{fill:#fff;}</style></defs><path class="cls-1" d="M321.79,81.66a2.19,2.19,0,0,1,.68,1.73v4.5l-.08.14h-1.2l-.08-.14V83.68a1.48,1.48,0,0,0-.37-1.12,1.25,1.25,0,0,0-1.05-.45,1.38,1.38,0,0,0-1,.37,1.49,1.49,0,0,0-.53.91V88H317l-.07-.14V81.28l.07-.14h1.2v.52h.08a1.94,1.94,0,0,1,1.72-.75A2.4,2.4,0,0,1,321.79,81.66Zm-10.5.75a1.29,1.29,0,0,0-.52.75,2.54,2.54,0,0,0-.08.82h3.15a.08.08,0,0,0,.08-.07l-.08-.68a1.78,1.78,0,0,0-.53-.9,1.61,1.61,0,0,0-1-.3A1.36,1.36,0,0,0,311.29,82.41Zm2.77,3.75h.3l.53.37.15.15v.15A2.88,2.88,0,0,1,314,87.89a3.58,3.58,0,0,1-1.57.37,2.89,2.89,0,0,1-1.65-.45,2.56,2.56,0,0,1-1-1.2,5.62,5.62,0,0,1-.37-2,6.93,6.93,0,0,1,.14-1.5,3,3,0,0,1,1-1.5,3,3,0,0,1,1.8-.52,2.79,2.79,0,0,1,2,.67,3.71,3.71,0,0,1,.91,2l.07,1.28c0,.52-.07.15-.23.15h-4.42a4.74,4.74,0,0,0,.15.75,1.47,1.47,0,0,0,.6.9,1.86,1.86,0,0,0,1.12.3A1.58,1.58,0,0,0,314.06,86.16Zm-7-4.5a2.18,2.18,0,0,1,.67,1.73v4.5l-.08.14h-1.19l-.08-.14V83.68a1.88,1.88,0,0,0-.37-1.12,1.55,1.55,0,0,0-1.05-.45,1.69,1.69,0,0,0-1.06.37,1.73,1.73,0,0,0-.44.91v4.5l-.08.14h-1.2l-.08-.14V81.14h1.21l.07.14v.38h.08a1.94,1.94,0,0,1,1.72-.75A2.42,2.42,0,0,1,307,81.66Zm-8.71,5.1a1.86,1.86,0,0,0,.61-.9,6.12,6.12,0,0,0,.14-1.28,4.9,4.9,0,0,0-.14-1.27,1.5,1.5,0,0,0-.61-.9,1.36,1.36,0,0,0-1-.3,1.52,1.52,0,0,0-1,.3,1.83,1.83,0,0,0-.59.9,5.24,5.24,0,0,0,0,2.55,1.5,1.5,0,0,0,.59.9,1.91,1.91,0,0,0,1,.3A2,2,0,0,0,298.31,86.76Zm-2.77.9a3.4,3.4,0,0,1-1.05-1.43,5.71,5.71,0,0,1-.22-1.65,5.17,5.17,0,0,1,.22-1.65,2.86,2.86,0,0,1,2.85-2,2.65,2.65,0,0,1,1.72.53,2.07,2.07,0,0,1,1.05,1.35,4.73,4.73,0,0,1,0,3.37,2.45,2.45,0,0,1-1.05,1.43,2.58,2.58,0,0,1-1.72.52A3,3,0,0,1,295.54,87.66Zm-4.27.37-.08-.14V81.14h1.2l.08.14v6.61l-.08.14h-1.12Zm0-8.25a.66.66,0,0,1-.3-.6.76.76,0,0,1,.3-.67.81.81,0,0,1,.59-.23.89.89,0,0,1,.68.23,1.09,1.09,0,0,1,.23.67.8.8,0,0,1-.91.83A.78.78,0,0,1,291.27,79.78ZM288,85.33V83.68a.86.86,0,0,1-.08-.45,1.91,1.91,0,0,0-.53-.82,1.36,1.36,0,0,0-1-.3,1.47,1.47,0,0,0-1,.3,1.91,1.91,0,0,0-.53.82,5.53,5.53,0,0,0-.15,1.28,4.41,4.41,0,0,0,.15,1.35,1.38,1.38,0,0,0,.53.82,1.47,1.47,0,0,0,1,.3,1.22,1.22,0,0,0,1-.3,1.38,1.38,0,0,0,.53-.82A1.37,1.37,0,0,1,288,85.33Zm.07-4.19h1.2v6.59a2.77,2.77,0,0,1-.9,2.33,3.88,3.88,0,0,1-2.55.75h-.6a.22.22,0,0,1-.22-.23v-.82l.07-.15h.68a2.44,2.44,0,0,0,1.64-.38,1.78,1.78,0,0,0,.53-1.5v-.22l-.08.07a2,2,0,0,1-1.72.6,2.72,2.72,0,0,1-1.57-.45,2,2,0,0,1-1-1.34,4.94,4.94,0,0,1-.23-1.66,5.78,5.78,0,0,1,.23-1.8A2.34,2.34,0,0,1,286,81.14a2.33,2.33,0,0,1,1.79.67h.08v-.3Zm-10,1.27a1.05,1.05,0,0,0-.52.75,2.83,2.83,0,0,0-.15.82.07.07,0,0,0,.08.08h3.14a1.51,1.51,0,0,0-.07-.67,1.44,1.44,0,0,0-.52-.91,1.56,1.56,0,0,0-1-.3A1.33,1.33,0,0,0,278.06,82.41Zm2.71,3.75h.29l.61.37.07.15v.15a3.16,3.16,0,0,1-4.27,1,2.71,2.71,0,0,1-1.05-1.2,5.62,5.62,0,0,1-.38-2,7.63,7.63,0,0,1,.15-1.5,3.17,3.17,0,0,1,1.05-1.5,3.27,3.27,0,0,1,3.75.15,3.69,3.69,0,0,1,.9,2A6.83,6.83,0,0,1,282,85a.16.16,0,0,1-.16.15h-4.42a1.74,1.74,0,0,0,.08.75,1.5,1.5,0,0,0,.59.9,1.89,1.89,0,0,0,1.13.3A1.6,1.6,0,0,0,280.77,86.16Zm-5.78-5c.07.07.15.14.07.29l-.14.9-.15.15H274a1.55,1.55,0,0,0-1.13.45,1.46,1.46,0,0,0-.37,1v4l-.08.15h-1.2l-.07-.15v-6.6l.07-.15h1.2l.08.15V82h.07a1.8,1.8,0,0,1,1.65-1ZM267.94,88V78.51h1.28V88Zm-3.83-1.27a1.53,1.53,0,0,0,.61-.9,3.26,3.26,0,0,0,.14-1.28,3.21,3.21,0,0,0-.14-1.27,1.84,1.84,0,0,0-.53-.9,1.72,1.72,0,0,0-1.05-.3,1.47,1.47,0,0,0-1,.3,1.86,1.86,0,0,0-.61.9,5.49,5.49,0,0,0,0,2.55,1.86,1.86,0,0,0,.61.9,2.16,2.16,0,0,0,1.05.3A1.75,1.75,0,0,0,264.11,86.76Zm-2.69.9a2.5,2.5,0,0,1-1.06-1.43,6.5,6.5,0,0,1-.3-1.65,5.17,5.17,0,0,1,.3-1.65,2.24,2.24,0,0,1,1.06-1.42,2.7,2.7,0,0,1,1.8-.53A2.92,2.92,0,0,1,266,82.86a6.14,6.14,0,0,1,.23,1.65,6.26,6.26,0,0,1-.23,1.72,3.4,3.4,0,0,1-1.05,1.43,2.93,2.93,0,0,1-1.72.52A2.69,2.69,0,0,1,261.42,87.66Zm-4.06-3.08a3.54,3.54,0,0,0-.37-1.72,1.27,1.27,0,0,0-1.35-.75,1.18,1.18,0,0,0-1.12.75,4.08,4.08,0,0,0,0,3.45,1.2,1.2,0,0,0,1.12.75,1.45,1.45,0,0,0,1.28-.67A3.21,3.21,0,0,0,257.36,84.58Zm1.28,0a9,9,0,0,1-.15,1.65,2.85,2.85,0,0,1-1,1.43,2.63,2.63,0,0,1-1.73.52L255,88l-.75-.52h-.08v3l-.08.15h-1.2l-.07-.15V81.14H254l.07.14v.38h.08l.75-.52.83-.16a2.86,2.86,0,0,1,1.64.45,3.23,3.23,0,0,1,1,1.43A5.55,5.55,0,0,1,258.64,84.58ZM249,86.76a1.46,1.46,0,0,0,.59-.9,3.27,3.27,0,0,0,.16-1.28,6,6,0,0,0-.08-1.27,2.73,2.73,0,0,0-.6-.9,1.72,1.72,0,0,0-1-.3,1.46,1.46,0,0,0-1,.3,2.59,2.59,0,0,0-.6.9,5.49,5.49,0,0,0,0,2.55,1.78,1.78,0,0,0,.6.9,2.13,2.13,0,0,0,1,.3A1.82,1.82,0,0,0,249,86.76Zm-2.7.9a2.74,2.74,0,0,1-1.05-1.43,5.72,5.72,0,0,1-.23-1.65,4.92,4.92,0,0,1,.23-1.65,2.23,2.23,0,0,1,1.05-1.42,3,3,0,0,1,1.79-.53,2.92,2.92,0,0,1,2.78,1.88,5.76,5.76,0,0,1,.22,1.65,5.57,5.57,0,0,1-.22,1.72,3.4,3.4,0,0,1-1.05,1.43,2.74,2.74,0,0,1-1.73.52A2.79,2.79,0,0,1,246.27,87.66Zm-2.33-6.52a.21.21,0,0,1,.08.29l-.16.9-.14.15h-.83a1.42,1.42,0,0,0-1.42,1.5v4l-.08.15h-1.2l-.08-.15v-6.6l.08-.15h1.2V82h.08a1.77,1.77,0,0,1,1.64-1Zm-5.4,1H237v3.53a1.4,1.4,0,0,0,.22.89,1.17,1.17,0,0,0,.83.23h.45l.07.15v.67a.23.23,0,0,1-.23.23h-.52a2.2,2.2,0,0,1-1.57-.38c-.38-.22-.53-.67-.53-1.35V82h-1v-.82l.07-.15h.9a.08.08,0,0,0,.08-.08V79.33H237V81h1.57l.07.16V82Zm-8.85.3a1,1,0,0,0-.52.75A2.29,2.29,0,0,0,229,84a.07.07,0,0,0,.07.08h3.15a1.67,1.67,0,0,0-.07-.67,1.44,1.44,0,0,0-1.5-1.21A1.31,1.31,0,0,0,229.69,82.41Zm2.7,3.75h.3l.6.37.07.15v.15a2.84,2.84,0,0,1-2.62,1.43,2.91,2.91,0,0,1-1.65-.45,2.77,2.77,0,0,1-1.05-1.2,5.62,5.62,0,0,1-.37-2,6.93,6.93,0,0,1,.14-1.5,3.24,3.24,0,0,1,1.05-1.5,3.26,3.26,0,0,1,3.75.15,3.71,3.71,0,0,1,.91,2,6.83,6.83,0,0,1,.07,1.28.15.15,0,0,1-.15.15H229l.07.75a1.47,1.47,0,0,0,.6.9,1.86,1.86,0,0,0,1.12.3A1.58,1.58,0,0,0,232.39,86.16ZM218.44,88V78.51h1.12l.23.15,2.32,3.67c0,.08.08.08.08,0l2.33-3.67.22-.15h1.12V88h-1.27V80.91h-.07L222.64,84a.37.37,0,0,1-.3.16h-.45l-.22-.16-1.88-3.07h-.07V88ZM213,81.66a2.15,2.15,0,0,1,.67,1.73v4.5l-.08.14h-1.2l-.07-.14V83.68a1.48,1.48,0,0,0-.37-1.12,1.26,1.26,0,0,0-1.06-.45,1.42,1.42,0,0,0-1,.37,1.49,1.49,0,0,0-.53.91V88h-1.19l-.08-.14V81.28l.08-.14h1.19v.52h.08a2,2,0,0,1,1.73-.75A2.4,2.4,0,0,1,213,81.66ZM204.79,88l-.07-.14V81.14h1.2l.07.14v6.61l-.07.14Zm0-8.25a.68.68,0,0,1-.3-.6.82.82,0,0,1,.3-.67.84.84,0,0,1,.6-.23.86.86,0,0,1,.67.23,1,1,0,0,1,.23.67.8.8,0,0,1-.23.6.86.86,0,0,1-.67.23A.8.8,0,0,1,204.79,79.78Zm-4.5,2.33h-1.65v3.53a1.4,1.4,0,0,0,.22.89,1.31,1.31,0,0,0,.83.23h.53v.82c0,.15-.08.23-.16.23h-.59a2.44,2.44,0,0,1-1.58-.38c-.37-.22-.53-.67-.53-1.35V82h-1v-1h.9l.07-.08v-1.5l.08-.15.15-.07h.83l.14.07.08.15V81l.08.08h1.57ZM193,79.64a.65.65,0,0,1-.23-.53.61.61,0,0,1,.23-.53.67.67,0,0,1,.52-.22.74.74,0,0,1,.6.22.6.6,0,0,1,.22.53.67.67,0,0,1-.22.53.74.74,0,0,1-.6.22A.67.67,0,0,1,193,79.64Zm.22,7a1.13,1.13,0,0,0,.53-1v-.82h-1.35a2.23,2.23,0,0,0-1.28.37.81.81,0,0,0-.45.82.93.93,0,0,0,.37.83,1.71,1.71,0,0,0,.91.23A2.34,2.34,0,0,0,193.24,86.68Zm-2.63-7a.71.71,0,0,1-.22-.53.63.63,0,0,1,.22-.53.71.71,0,0,1,.53-.22.74.74,0,0,1,.75.75.71.71,0,0,1-.22.53.63.63,0,0,1-.53.22A.71.71,0,0,1,190.61,79.64Zm3.23,1.64a2.12,2.12,0,0,1,1,.83,2,2,0,0,1,.3,1.2v4.58L195,88h-1.2l-.07-.14v-.38h-.08a1.79,1.79,0,0,1-.9.52l-1.12.23a2.34,2.34,0,0,1-1.65-.53,1.86,1.86,0,0,1-.68-1.57,2.17,2.17,0,0,1,.75-1.65,3.09,3.09,0,0,1,2.1-.6h1.58v-.38a1.36,1.36,0,0,0-.3-1,1.48,1.48,0,0,0-1.05-.3,1.86,1.86,0,0,0-1,.22A1,1,0,0,0,191,83a.22.22,0,0,1-.22.22l-1-.15-.15-.07h-.08a2,2,0,0,1,.91-1.35,3.7,3.7,0,0,1,1.87-.45A3.17,3.17,0,0,1,193.84,81.28Zm-5.78.83h-1.57v3.53a1.35,1.35,0,0,0,.23.89,1.15,1.15,0,0,0,.82.23H188l.07.15v.67a.22.22,0,0,1-.22.23h-.53a2.43,2.43,0,0,1-1.57-.38c-.38-.22-.52-.67-.52-1.35V82h-1v-.82l.07-.15h.91l.07-.08v-1.5l.07-.15.16-.07h.82l.15.07.07.15V81l.08.08h1.5l.08.15V82ZM181.47,88l-.08-.14V81.28l.08-.14h1.2v6.75l-.08.14h-1.12Zm-.08-8.25a.83.83,0,0,1-.22-.6,1,1,0,0,1,.22-.67.89.89,0,0,1,.67-.23,1.26,1.26,0,0,1,.68.23,1.09,1.09,0,0,1,.23.67.88.88,0,0,1-.23.6,1.26,1.26,0,0,1-.68.23A.89.89,0,0,1,181.39,79.78ZM178.09,88V78.51h1.2l.07.15v9.23l-.07.14Zm-3.3,0-.07-.14V81.14h1.2l.07.14v6.61l-.07.14Zm-.07-8.25a.8.8,0,0,1-.23-.6,1,1,0,0,1,.23-.67,1.23,1.23,0,0,1,.67-.23.83.83,0,0,1,.9.9.8.8,0,0,1-.23.6,1,1,0,0,1-.67.23A1.23,1.23,0,0,1,174.72,79.78Zm-3,4.8a3.35,3.35,0,0,0-.45-1.8,1.44,1.44,0,0,0-2.41,0,4,4,0,0,0-.37,1.8,3.7,3.7,0,0,0,.37,1.73,1.39,1.39,0,0,0,1.2.75,1.37,1.37,0,0,0,1.28-.75A4,4,0,0,0,171.72,84.58Zm1.27,0a5.59,5.59,0,0,1-.22,1.73,2.6,2.6,0,0,1-1,1.35,2.29,2.29,0,0,1-1.65.52,1.52,1.52,0,0,1-.83-.22,1.81,1.81,0,0,1-.75-.53h-.07v.38l-.07.15h-1.2V78.51h1.2l.07.15v3h.07l.75-.52.83-.16a2.69,2.69,0,0,1,2.7,1.88A10,10,0,0,1,173,84.58Zm-9.6,2.18a1.91,1.91,0,0,0,.6-.9,5.53,5.53,0,0,0,.15-1.28,5.38,5.38,0,0,0-.15-1.27,1.44,1.44,0,0,0-.6-.9,1.36,1.36,0,0,0-1-.3,1.48,1.48,0,0,0-1,.3,1.91,1.91,0,0,0-.6.9,5.49,5.49,0,0,0,0,2.55,1.91,1.91,0,0,0,.6.9A1.73,1.73,0,0,0,163.39,86.76Zm-2.7.9a2.49,2.49,0,0,1-1.05-1.43,4.2,4.2,0,0,1-.3-1.65,5.47,5.47,0,0,1,.22-1.65,2.87,2.87,0,0,1,2.86-2,2.66,2.66,0,0,1,1.72.53,2.07,2.07,0,0,1,1.05,1.35,4,4,0,0,1,.3,1.65,4.19,4.19,0,0,1-.3,1.72,2.73,2.73,0,0,1-1,1.43,3,3,0,0,1-1.8.52A2.63,2.63,0,0,1,160.69,87.66Zm-10.5.37-.08-.14V78.66l.08-.15h1.05l.23.15,2.32,3.67c0,.08.07.08.07,0l2.33-3.67.23-.15h1.12V88h-1.2l-.07-.14v-7h-.08L154.31,84l-.22.16h-.45a.37.37,0,0,1-.3-.16l-1.8-3.07h-.07v7l-.08.14Zm-4.27-6.89a.36.36,0,0,1,.14.29l-.22.9a.15.15,0,0,1-.15.15h-.75a1.41,1.41,0,0,0-1.5,1.5v4l-.08.15h-1.19l-.08-.15V81.21h1.2l.07.15V82h.08a1.8,1.8,0,0,1,1.65-1Zm-9.38,1.27a1,1,0,0,0-.52.75,2.54,2.54,0,0,0-.16.82.08.08,0,0,0,.08.08h3.23a6.58,6.58,0,0,0-.15-.67,1.44,1.44,0,0,0-1.5-1.21A1.31,1.31,0,0,0,136.54,82.41Zm2.77,3.75h.23l.6.37.08.15v.15a3,3,0,0,1-1.05,1.06,3.59,3.59,0,0,1-1.58.37,2.91,2.91,0,0,1-1.65-.45,2.77,2.77,0,0,1-1.05-1.2,5.82,5.82,0,0,1-.3-2,4.24,4.24,0,0,1,.15-1.5,2.54,2.54,0,0,1,1-1.5,2.67,2.67,0,0,1,1.8-.52,2.74,2.74,0,0,1,1.95.67,3.68,3.68,0,0,1,.89,2,6.08,6.08,0,0,1,.08,1.28c0,.07,0,.15-.15.15h-4.43l.08.75a1.91,1.91,0,0,0,.6.9A2,2,0,0,0,139.31,86.16Zm-7.79-1.58a4.16,4.16,0,0,0-.38-1.8,1.43,1.43,0,0,0-2.4,0,3.26,3.26,0,0,0-.45,1.8,3.83,3.83,0,0,0,.38,1.73,1.34,1.34,0,0,0,1.27.75,1.37,1.37,0,0,0,1.2-.75A3.83,3.83,0,0,0,131.52,84.58Zm.07-6.07h1.2V88h-1.2l-.07-.14v-.38h-.08a1.7,1.7,0,0,1-.75.52,1.5,1.5,0,0,1-.9.23,2.24,2.24,0,0,1-1.57-.53,2.58,2.58,0,0,1-1-1.34,5.67,5.67,0,0,1-.22-1.73,5.61,5.61,0,0,1,.15-1.73,2.62,2.62,0,0,1,1-1.35,2.4,2.4,0,0,1,1.65-.52l.9.15.75.52h.08v-3Zm190.5-11.18h-1.57v3.53a1.44,1.44,0,0,0,.22.9,1.2,1.2,0,0,0,.82.22h.3l.16.08.07.15v.68a.22.22,0,0,1-.23.22h-.52a2.24,2.24,0,0,1-1.57-.38c-.38-.22-.53-.67-.53-1.34V67.48h-1v-1l.07-.15h1v-1.8h1.21a.21.21,0,0,1,.07.15v1.5h1.58l.07.15v.82Zm-6.53-2.25a1.69,1.69,0,0,0-.22,1v.15h1.58v1.12h-1.5a.08.08,0,0,0-.08.08V73l-.07.15h-1.21L314,73v-5.4a.08.08,0,0,0-.07-.08h-1V66.36H314v-.22a3.15,3.15,0,0,1,.23-1.36A1.29,1.29,0,0,1,315,64a3.42,3.42,0,0,1,1.42-.22h.53L317,64v.75l-.07.15h-.38A1.61,1.61,0,0,0,315.56,65.08Zm-4.64,1.81a2.16,2.16,0,0,1,.67,1.72v4.5l-.07.15h-1.21l-.07-.15v-4.2a1.85,1.85,0,0,0-.38-1.13,1.36,1.36,0,0,0-1.05-.45,1.64,1.64,0,0,0-1,.38,1.73,1.73,0,0,0-.46.9v4.5l-.07.15H306l-.07-.15V66.36h1.2l.07.15v.38h.07a1.92,1.92,0,0,1,1.73-.75A2.4,2.4,0,0,1,310.92,66.89Zm-8.11-.53H304v6.9h-1.21l-.07-.15v-.45h-.07a2.42,2.42,0,0,1-2.93.45,1.71,1.71,0,0,1-.9-.75,2.13,2.13,0,0,1-.37-1.2V66.51l.07-.15h1.2v4.35a1.47,1.47,0,0,0,.45,1.12,1.42,1.42,0,0,0,2.1,0,1.47,1.47,0,0,0,.45-1.12v-4.2Zm-11.17,6.9-.08-.15V63.89l.08-.16h1.2v5.33h.08l2.47-2.7.22-.15h1.13a.15.15,0,0,1,.15.15.28.28,0,0,0-.08.15l-1.72,1.95,2.1,4.43V73l-.15.15h-1a.22.22,0,0,1-.22-.22l-1.65-3.68h-.08l-1.27,1.43v2.18l-.07.14h-1.21Zm-3.3-6.9h1.2l.07.15v6.6l-.07.15h-1.2l-.07-.15v-.45h-.08a2,2,0,0,1-1.65.75,2.67,2.67,0,0,1-1.27-.3,1.77,1.77,0,0,1-.91-.75,2.11,2.11,0,0,1-.3-1.2v-4.8h1.21l.07.15v4.2a1.8,1.8,0,0,0,.38,1.12,1.23,1.23,0,0,0,1,.45,1.44,1.44,0,0,0,1.12-.45,1.48,1.48,0,0,0,.38-1.12V66.36Zm-12.07,6.9-.08-.15v-.9l.08-.23,4.79-7h-4.79l-.08-.15V64l.08-.14h6.29v1a.41.41,0,0,1-.07.3l-4.8,7h4.87v1.05Zm-8-5.62a1.26,1.26,0,0,0-.52.75l-.16.82h3.3l-.07-.68a1.82,1.82,0,0,0-.6-.89A1.7,1.7,0,0,0,268.24,67.64ZM271,71.39h.22l.6.37.08.15v.15a2.89,2.89,0,0,1-1.06,1,3.27,3.27,0,0,1-1.57.37,2.77,2.77,0,0,1-1.65-.45,2.66,2.66,0,0,1-1.05-1.2,5.79,5.79,0,0,1-.3-2,4.73,4.73,0,0,1,.15-1.5,2.51,2.51,0,0,1,1-1.5,3,3,0,0,1,1.8-.53,2.87,2.87,0,0,1,2,.68,3.12,3.12,0,0,1,.82,2l.16,1.27c.07.53-.08.15-.23.15h-4.35a.09.09,0,0,0-.08.08l.08.75a1.64,1.64,0,0,0,.67.9,1.82,1.82,0,0,0,1.13.3A1.67,1.67,0,0,0,271,71.39Zm-7.8,1.87v-6.9h1.2l.07.15v6.6l-.07.15Zm0-8.25a.66.66,0,0,1-.3-.6.79.79,0,0,1,.3-.68.82.82,0,0,1,.59-.22.92.92,0,0,1,.68.22,1.09,1.09,0,0,1,.23.68.79.79,0,0,1-.91.82A.82.82,0,0,1,263.22,65Zm-3.38,4.8a4,4,0,0,0-.37-1.8,1.44,1.44,0,0,0-2.41,0,3.33,3.33,0,0,0-.45,1.8,4.11,4.11,0,0,0,.38,1.72,1.4,1.4,0,0,0,2.48,0A3.66,3.66,0,0,0,259.84,69.81Zm.08-6.08h1.19v9.53h-1.19l-.08-.15v-.38h-.07a1.81,1.81,0,0,1-.75.53,1.62,1.62,0,0,1-.91.22,2.25,2.25,0,0,1-1.57-.52,2.72,2.72,0,0,1-1-1.35,5.89,5.89,0,0,1-.22-1.72,6.23,6.23,0,0,1,.15-1.73,2.6,2.6,0,0,1,1-1.35,2.43,2.43,0,0,1,1.64-.53l.91.15.75.53h.07V64Zm-8.4,2.63c.15.07.15.15.15.3l-.23.9a.15.15,0,0,1-.15.15.08.08,0,0,1-.07-.07h-.68a1.57,1.57,0,0,0-1.5,1.5v4l-.07.15h-1.2l-.08-.15V66.36h1.2l.08.15v.6H249a1.79,1.79,0,0,1,1.65-1ZM243.64,65a.83.83,0,0,1-.22-.6.74.74,0,0,1,.75-.75.73.73,0,0,1,.6.23.64.64,0,0,1,.22.52.83.83,0,0,1-.22.6.75.75,0,0,1-.6.22A.66.66,0,0,1,243.64,65Zm-2.4,0a.83.83,0,0,1-.22-.6.74.74,0,0,1,.75-.75.56.56,0,0,1,.52.23.68.68,0,0,1,.23.52.88.88,0,0,1-.23.6.58.58,0,0,1-.52.22A.65.65,0,0,1,241.24,65Zm3.3,1.35h1.13l.07.15v6.6l-.07.15h-1.13l-.07-.15v-.45h-.08a2.4,2.4,0,0,1-2.92.45,1.77,1.77,0,0,1-.91-.75,2.13,2.13,0,0,1-.37-1.2V66.51l.08-.15h1.2v4.35a1.86,1.86,0,0,0,.37,1.12,1.44,1.44,0,0,0,1.13.45,1.25,1.25,0,0,0,1.05-.45,1.51,1.51,0,0,0,.45-1.12v-4.2Zm-7.2-1.28a1.62,1.62,0,0,0-.23,1v.15h1.58l.08.15v1h-1.5a.08.08,0,0,0-.08.08V73l-.08.15h-1.19V67.56h-1.13v-1.2h1.13v-.22a3.3,3.3,0,0,1,.14-1.36,1.32,1.32,0,0,1,.75-.75,3.89,3.89,0,0,1,1.43-.22h.53l.07.15v.75l-.07.15h-.38A1.74,1.74,0,0,0,237.34,65.08Zm-6.15,1.28a.22.22,0,0,1,.08.3l-.16.9-.14.15-.08-.07h-.67a1.4,1.4,0,0,0-1.5,1.5v4l-.08.15h-1.2l-.08-.15v-6.6l.08-.15h1.2l.08.15v.6h.07a1.79,1.79,0,0,1,1.65-1Zm-9.45,1.28a1.88,1.88,0,0,0-.52.75,2.49,2.49,0,0,0-.08.82h3.22l-.07-.68a1.79,1.79,0,0,0-.52-.89,1.6,1.6,0,0,0-1.05-.31A1.44,1.44,0,0,0,221.74,67.64Zm2.78,3.75h.29l.53.37a.15.15,0,0,1,.15.15v.15a2.86,2.86,0,0,1-1.05,1,3.34,3.34,0,0,1-1.58.37,2.88,2.88,0,0,1-1.64-.45,2.51,2.51,0,0,1-1-1.2,5.57,5.57,0,0,1-.38-2,7.49,7.49,0,0,1,.16-1.5,2.91,2.91,0,0,1,1-1.5,3,3,0,0,1,1.8-.53,2.75,2.75,0,0,1,2,.68,3.75,3.75,0,0,1,.91,2l.07,1.27c0,.53-.07.15-.23.15h-4.42a4.53,4.53,0,0,0,.15.75,1.49,1.49,0,0,0,.6.9,1.74,1.74,0,0,0,1.13.3A1.59,1.59,0,0,0,224.52,71.39Zm-6-4.06h-1.66v3.53a1.47,1.47,0,0,0,.31.9A1.19,1.19,0,0,0,218,72h.3l.15.08.08.15v.68a.22.22,0,0,1-.23.22h-.52a2.26,2.26,0,0,1-1.58-.38c-.38-.22-.52-.67-.52-1.34V67.48h-1v-1l.08-.15h1v-1.8h1.2v1.65h1.65l.08.15v.82Zm-9.16,5.78a1.86,1.86,0,0,1-1-.68,1.52,1.52,0,0,1-.37-1v-.15h1.12a.08.08,0,0,1,.08.08.74.74,0,0,0,.45.67,1.51,1.51,0,0,0,1.05.3,1.92,1.92,0,0,0,1-.22.83.83,0,0,0,.37-.68c0-.3-.07-.53-.29-.6l-1.21-.45L209.29,70a2,2,0,0,1-.9-.68,1.45,1.45,0,0,1-.37-1,1.56,1.56,0,0,1,.75-1.42,2.93,2.93,0,0,1,1.87-.6,2.78,2.78,0,0,1,1.42.3,1.8,1.8,0,0,1,.91.67,1.83,1.83,0,0,1,.37,1,.07.07,0,0,1-.07.08h-1.21a.65.65,0,0,0-.37-.67,1.47,1.47,0,0,0-1.05-.31,1.91,1.91,0,0,0-1,.23.81.81,0,0,0-.38.67.59.59,0,0,0,.38.6l1.12.45,1.35.38a2.08,2.08,0,0,1,.9.67,1.7,1.7,0,0,1,.38,1.06,1.68,1.68,0,0,1-.75,1.5,3.13,3.13,0,0,1-3.31.22Zm-4.27-6.75h1.2l.07.15v6.6l-.07.15h-1.2l-.07-.15v-.45h-.08a2,2,0,0,1-1.65.75,2.67,2.67,0,0,1-1.27-.3,1.77,1.77,0,0,1-.91-.75,2.11,2.11,0,0,1-.3-1.2v-4.8H202l.07.15v4.2a1.8,1.8,0,0,0,.38,1.12,1.23,1.23,0,0,0,1.05.45,1.44,1.44,0,0,0,1.12-.45,1.48,1.48,0,0,0,.38-1.12V66.36Zm-7.5,6.9V63.73h1.2l.07.16v9.22l-.07.15ZM190.77,73a3.19,3.19,0,0,1-1.13-1.12,3,3,0,0,1-.45-1.65V66.73a2.91,2.91,0,0,1,.45-1.65A2.32,2.32,0,0,1,190.77,64a4.43,4.43,0,0,1,1.79-.38,3.23,3.23,0,0,1,1.73.38,2.72,2.72,0,0,1,1.2,1.05,3.3,3.3,0,0,1,.37,1.57l-.14.15h-1.13a1.92,1.92,0,0,0-.6-1.42,1.88,1.88,0,0,0-1.43-.53,2.07,2.07,0,0,0-1.5.53,1.9,1.9,0,0,0-.52,1.35v3.67a1.93,1.93,0,0,0,.52,1.43,2.42,2.42,0,0,0,1.5.52,2.17,2.17,0,0,0,1.43-.52,1.93,1.93,0,0,0,.6-1.43v-.15h1.27a3.93,3.93,0,0,1-.37,1.65,2.74,2.74,0,0,1-1.2,1.06,4.27,4.27,0,0,1-1.73.37A4.36,4.36,0,0,1,190.77,73Zm-5.55-6.67c.14.07.14.15.14.3l-.22.9-.08.15-.14-.07h-.68a1.35,1.35,0,0,0-1.05.44,1.29,1.29,0,0,0-.45,1.06v4.12h-1.27v-6.9h1.27v.75l.07.07a2,2,0,0,1,1.73-1Zm-9.38,1.28a1,1,0,0,0-.53.75,2.52,2.52,0,0,0-.14.82h3.3a5.58,5.58,0,0,0-.16-.68,1.43,1.43,0,0,0-1.5-1.2A1.28,1.28,0,0,0,175.84,67.64Zm2.77,3.75h.23l.6.37.08.15v.15a3,3,0,0,1-1.05,1,3.34,3.34,0,0,1-1.58.37,2.77,2.77,0,0,1-1.65-.45,2.66,2.66,0,0,1-1.05-1.2,5.79,5.79,0,0,1-.3-2,4.22,4.22,0,0,1,.15-1.5,2.51,2.51,0,0,1,1-1.5,2.67,2.67,0,0,1,1.79-.53,2.71,2.71,0,0,1,2,.68,3.74,3.74,0,0,1,.9,2l.14,1.27c.08.53-.07.15-.22.15h-4.35a.08.08,0,0,0-.07.08l.07.75a2,2,0,0,0,.6.9,2,2,0,0,0,2.77-.6Zm-7.12-4.5a2.17,2.17,0,0,1,.68,1.72v4.5l-.08.15h-1.2l-.08-.15v-4.2a1.47,1.47,0,0,0-.37-1.13,1.28,1.28,0,0,0-1.05-.45,1.6,1.6,0,0,0-1.5,1.28v4.65h-1.2l-.08-.15v-6.6l.08-.15h1.2v.53H168a1.88,1.88,0,0,1,1.72-.75A2.37,2.37,0,0,1,171.49,66.89Zm-7.5,0a2.17,2.17,0,0,1,.68,1.72v4.5l-.08.15h-1.2V68.91a1.55,1.55,0,0,0-.45-1.13,1.28,1.28,0,0,0-1.05-.45,1.39,1.39,0,0,0-1,.38,1,1,0,0,0-.45.9v4.5l-.08.15h-1.2l-.08-.15V63.89l.08-.16h1.2v3.16a2.06,2.06,0,0,1,1.8-.75A2.11,2.11,0,0,1,164,66.89Zm-11.1,6a2.93,2.93,0,0,1-1-1.43,5.44,5.44,0,0,1-.23-1.65,6.28,6.28,0,0,1,.23-1.73,2.75,2.75,0,0,1,1-1.35,2.84,2.84,0,0,1,1.8-.52,3,3,0,0,1,1.8.52,2.36,2.36,0,0,1,1,1.28,1,1,0,0,1,.07.38l-.15.14-.9.15h-.07a.14.14,0,0,1-.15-.15v-.14a1.23,1.23,0,0,0-.53-.83,1.58,1.58,0,0,0-1.05-.3,1.46,1.46,0,0,0-1,.3,1.4,1.4,0,0,0-.53.83,6.71,6.71,0,0,0-.15,1.34,5.53,5.53,0,0,0,.15,1.28,1.74,1.74,0,0,0,.53.9,2.08,2.08,0,0,0,1,.3,2.16,2.16,0,0,0,1.05-.3,1.45,1.45,0,0,0,.53-.83l.15-.15h.14l.83.15a.23.23,0,0,1,.22.23.29.29,0,0,0-.07.22,2.26,2.26,0,0,1-1,1.36,3.05,3.05,0,0,1-1.79.52A2.74,2.74,0,0,1,152.89,72.89Zm-3.6-6a2.17,2.17,0,0,1,.68,1.72v4.5l-.08.15h-1.2V68.91a1.55,1.55,0,0,0-.45-1.13,1.28,1.28,0,0,0-1.05-.45,1.39,1.39,0,0,0-1,.38,1.44,1.44,0,0,0-.53.9v4.65h-1.2l-.07-.15v-6.6l.07-.15h1.2v.53h.08a2.07,2.07,0,0,1,1.72-.75A2.28,2.28,0,0,1,149.29,66.89ZM140.36,65a.83.83,0,0,1-.22-.6.67.67,0,0,1,.22-.52.59.59,0,0,1,.53-.23.74.74,0,0,1,.75.75.83.83,0,0,1-.22.6.67.67,0,0,1-.53.22A.6.6,0,0,1,140.36,65Zm-2.47,0a.83.83,0,0,1-.22-.6.64.64,0,0,1,.22-.52.8.8,0,0,1,.6-.23.75.75,0,0,1,.75.75.83.83,0,0,1-.22.6.67.67,0,0,1-.53.22A.83.83,0,0,1,137.89,65Zm3.3,1.35h1.2v6.75l-.08.15h-1.2l-.07-.15v-.45a2,2,0,0,1-1.65.75,2.62,2.62,0,0,1-1.28-.3,1.72,1.72,0,0,1-.89-.75,2.06,2.06,0,0,1-.38-1.2v-4.8H138l.07.15v4.2a1.87,1.87,0,0,0,.38,1.12,1.25,1.25,0,0,0,1,.45,1.47,1.47,0,0,0,1.13-.45,1.86,1.86,0,0,0,.37-1.12V66.36Zm-13.72,6.9-.08-.15V63.73h1l.3.16,2.32,3.67c0,.08,0,.08.08,0l2.33-3.67c0-.08.07-.16.22-.16h1.05l.07.16v9.22l-.07.15h-1.2l-.07-.15v-7h-.08l-1.87,3.07-.23.15h-.45l-.23-.15-1.87-3.07h-.07v7l-.08.15h-1.12Zm-19.73,8.55V37.86a5.1,5.1,0,0,0-1.65-9.9,5.33,5.33,0,0,0-3.37,1.27L64.77,7.33a5.2,5.2,0,0,0,.07-1c0-6.8-10.2-6.8-10.2,0a5.39,5.39,0,0,0,.15,1.13l-38,22A4.8,4.8,0,0,0,13.31,28c-5.85,0-7.09,8.25-1.5,10v44c-5.89,1.44-4.64,10.17,1.43,9.89a4.75,4.75,0,0,0,3.45-1.42l38,22a6.15,6.15,0,0,0-.16,1.13,5.1,5.1,0,1,0,10-1l38.18-22a4.89,4.89,0,0,0,3.3,1.35,5.1,5.1,0,0,0,5.1-5.1,5,5,0,0,0-3.45-4.8M106.17,31a2,2,0,1,1-2,2,2,2,0,0,1,2-2m-5,.9a5.38,5.38,0,0,0-.08,1.13,5.24,5.24,0,0,0,.08,1.12l-38,22a5.62,5.62,0,0,0-1.88-1v-44A4.56,4.56,0,0,0,63.11,10Zm-39.45,28a2,2,0,1,1-2-2,2,2,0,0,1,2,2m-2-55.65a2,2,0,1,1-2,2,2,2,0,0,1,2-2M18.27,32,56.36,10a3.85,3.85,0,0,0,2,1.05V55a5,5,0,0,0-2,1.13l-38.09-22a7,7,0,0,0,.15-1.12A6.18,6.18,0,0,0,18.27,32m-7,1.05a2,2,0,1,1,2,2,2,2,0,0,1-2-2m2,55.65a2,2,0,0,1-2-2,2.1,2.1,0,0,1,2-2,2,2,0,1,1,0,4M16.69,83A4.31,4.31,0,0,0,14.89,82V37.86a4.73,4.73,0,0,0,1.88-1l38,22a5.39,5.39,0,0,0-.15,1.13A4.67,4.67,0,0,0,54.79,61Zm1.5,4.72a4.59,4.59,0,0,0,.15-1,6.06,6.06,0,0,0-.15-1l38.17-22a6,6,0,0,0,1.88,1v43.87a5.1,5.1,0,0,0-2,1.13Zm41.48,27.75a2,2,0,1,1,2-2,2,2,0,0,1-2,2m3.44-5.7a4.56,4.56,0,0,0-1.8-1.12V64.71a4.38,4.38,0,0,0,1.88-1.13l38,21.9a6.08,6.08,0,0,0-.08,1.13,2.85,2.85,0,0,0,.16,1.12Zm39.61-26.92L64.77,61a5.3,5.3,0,0,0,.07-1.05,5.39,5.39,0,0,0-.15-1.13l38.1-22a4.52,4.52,0,0,0,1.95,1V81.73a4.68,4.68,0,0,0-1.95,1.13m3.3,5.78a2,2,0,1,1,2-2,2,2,0,0,1-2,2m110-46.5a3.5,3.5,0,0,0-1.27,1.94,8.56,8.56,0,0,0-.3,1.81c0,.14.07.22.14.22h7.58c.15,0,.15-.08.15-.22a6.94,6.94,0,0,0-.15-1.58,3.68,3.68,0,0,0-3.75-2.85A4,4,0,0,0,216,42.14Zm6.68,9.14c.14-.14.22-.3.37-.3a.37.37,0,0,1,.3.16l1.35.82a.37.37,0,0,1,.3.37v.31a6,6,0,0,1-2.55,2.54,8,8,0,0,1-3.82,1,7.33,7.33,0,0,1-4-1A6.3,6.3,0,0,1,212.22,52a11.4,11.4,0,0,1-.83-4.72,15,15,0,0,1,.3-3.67,6.61,6.61,0,0,1,2.4-3.68,7.74,7.74,0,0,1,4.43-1.28,6.44,6.44,0,0,1,4.79,1.65,8.7,8.7,0,0,1,2.18,4.73l.23,3c.07,1.12-.16.52-.53.52h-10.5c-.15,0-.15.08-.15.15a5.21,5.21,0,0,0,.23,1.8,3.85,3.85,0,0,0,1.42,2.11,4.78,4.78,0,0,0,2.78.75A4,4,0,0,0,222.72,51.28Zm-18.53-3.89A8.4,8.4,0,0,0,203.14,43a3.29,3.29,0,0,0-3-1.57,3,3,0,0,0-2.78,1.65,8.53,8.53,0,0,0-.89,4.28,9,9,0,0,0,.82,4.19,3.14,3.14,0,0,0,2.85,1.81,3.4,3.4,0,0,0,3.22-1.88A9,9,0,0,0,204.19,47.39Zm3.23-.08a13.14,13.14,0,0,1-.61,4.27A6.87,6.87,0,0,1,204.49,55a6.69,6.69,0,0,1-4,1.2,5.42,5.42,0,0,1-2.18-.45,6.75,6.75,0,0,1-1.73-1.28.07.07,0,0,0-.07-.07l-.07.15v.82a.62.62,0,0,1-.16.38l-.37.15h-2.17l-.38-.15a.67.67,0,0,1-.15-.38V33.06a.67.67,0,0,1,.15-.38l.38-.15h2.17l.37.15a.62.62,0,0,1,.16.38v7.2l.07.15a.08.08,0,0,0,.07-.08,4.77,4.77,0,0,1,3.91-1.65,6.22,6.22,0,0,1,6.37,4.65A14.91,14.91,0,0,1,207.42,47.31Zm-22.36-8.25.38-.15h2.17l.38.15a.64.64,0,0,1,.15.37v15.9a.67.67,0,0,1-.15.38l-.38.15h-2.17l-.38-.15a.56.56,0,0,1-.07-.38v-1h-.22a4.75,4.75,0,0,1-4.05,1.8,7.73,7.73,0,0,1-3-.6,5.42,5.42,0,0,1-2.25-1.88,5.3,5.3,0,0,1-.83-3V39.43a.64.64,0,0,1,.15-.37l.38-.15h2.17l.3.15c.15.08.15.22.15.37V49.64a3.87,3.87,0,0,0,.9,2.69,4,4,0,0,0,5.25,0A3.65,3.65,0,0,0,185,49.64V39.43A.53.53,0,0,1,185.06,39.06Zm-27,16.12a6.55,6.55,0,0,1-2.84-2.7,7.65,7.65,0,0,1-1-4V39.89a7.66,7.66,0,0,1,1-4,6.92,6.92,0,0,1,2.84-2.63,9.1,9.1,0,0,1,4.28-1,9.37,9.37,0,0,1,4.2.9,6.45,6.45,0,0,1,2.85,2.62,7,7,0,0,1,1.05,3.83c0,.23-.15.37-.52.37l-2.18.15h-.15l-.23-.07a.15.15,0,0,1-.14-.15v-.15a4.67,4.67,0,0,0-1.36-3.45,4.77,4.77,0,0,0-3.52-1.28,5.18,5.18,0,0,0-3.6,1.28,4.62,4.62,0,0,0-1.35,3.45v8.85A4.35,4.35,0,0,0,158.74,52a4.87,4.87,0,0,0,3.6,1.36A4.59,4.59,0,0,0,165.86,52a4.32,4.32,0,0,0,1.36-3.37.37.37,0,0,1,.14-.3h.38l2.18.15c.37,0,.52.07.52.15v.15a7.35,7.35,0,0,1-1.05,3.9,6.86,6.86,0,0,1-2.85,2.62,9.24,9.24,0,0,1-4.2.9A9,9,0,0,1,158.06,55.18Zm-30.59.53a.56.56,0,0,1-.08-.38V33.06a.57.57,0,0,1,.08-.38l.37-.15h2.25a.66.66,0,0,1,.6.38l5.62,8.92c0,.15.08.15.16,0l5.62-8.92a.76.76,0,0,1,.6-.38h2.25l.37.15a.62.62,0,0,1,.16.38V55.33a.62.62,0,0,1-.16.38l-.37.15h-2.17l-.38-.15a.67.67,0,0,1-.15-.38V38.46l-.07-.15H142l-4.5,7.42a.59.59,0,0,1-.6.3h-1.06a.57.57,0,0,1-.59-.3l-4.5-7.42h-.16a.21.21,0,0,0-.07.15V55.33c0,.15,0,.31-.15.38l-.3.15h-2.25Z"/></svg>
